<svg width="78" height="72" viewBox="0 0 78 72" fill="none" xmlns="http://www.w3.org/2000/svg">
<path d="M34.3125 21.9375V24.1344C26.5547 26.1359 20.8906 33.0031 20.4453 41.2734C18.6141 41.9141 17.125 43.3359 17.125 45.375V50.0625H60.875V45.375C60.875 43.3359 59.3859 41.9141 57.5547 41.2734C57.1094 33.0031 51.4453 26.1359 43.6875 24.1344V21.9375H34.3125ZM37.4859 25.0625H40.5625C40.5312 25.2391 40.5312 25.4219 40.5625 25.6V34.4375H43.6875V27.4062C49.5281 29.25 53.9469 34.3953 54.5766 40.6875H51.5V43.8125H56.1875C57.0719 43.8125 57.75 44.4906 57.75 45.375V46.9375H20.25V45.375C20.25 44.4906 20.9281 43.8125 21.8125 43.8125H26.5V40.6875H23.4234C24.0531 34.3953 28.4703 29.25 34.3125 27.4062V34.4375H37.4375V25.8438C37.5156 25.5938 37.5359 25.325 37.4859 25.0625Z" fill="black"/>
</svg>
