<svg width="78" height="72" viewBox="0 0 78 72" fill="none" xmlns="http://www.w3.org/2000/svg">
<path d="M55.9997 32H51.333V26.1667C51.333 25.8572 51.2101 25.5605 50.9913 25.3417C50.7725 25.1229 50.4758 25 50.1663 25H24.4997C24.1903 25 23.8935 25.1229 23.6747 25.3417C23.4559 25.5605 23.333 25.8572 23.333 26.1667V47.1667C23.333 47.4761 23.4559 47.7728 23.6747 47.9916C23.8935 48.2104 24.1903 48.3333 24.4997 48.3333H25.6663V27.3333H48.9997V43.0717C48.2851 43.2991 47.6284 43.6787 47.0745 44.1842C46.5207 44.6897 46.0829 45.3092 45.7913 46H37.8347C37.4331 45.0423 36.7566 44.2252 35.8906 43.652C35.0246 43.0789 34.0081 42.7754 32.9697 42.78C31.983 42.8018 31.0237 43.1088 30.2078 43.664C29.3918 44.2192 28.7541 44.9988 28.3717 45.9086C27.9892 46.8184 27.8784 47.8195 28.0526 48.7909C28.2269 49.7623 28.6787 50.6625 29.3535 51.3827C30.0283 52.1028 30.8972 52.6122 31.8552 52.8492C32.8132 53.0862 33.8194 53.0407 34.7522 52.7182C35.6849 52.3958 36.5043 51.8101 37.1114 51.0319C37.7184 50.2538 38.0871 49.3165 38.173 48.3333H45.4997C45.6358 49.6169 46.2421 50.8046 47.2017 51.6678C48.1614 52.531 49.4064 53.0086 50.6972 53.0086C51.9879 53.0086 53.233 52.531 54.1926 51.6678C55.1522 50.8046 55.7585 49.6169 55.8947 48.3333H60.6663V36.6667C60.6663 35.429 60.1747 34.242 59.2995 33.3668C58.4243 32.4917 57.2374 32 55.9997 32ZM32.9697 50.6667C32.5907 50.6913 32.2107 50.6379 31.8531 50.5098C31.4956 50.3816 31.1682 50.1815 30.891 49.9218C30.6139 49.6621 30.393 49.3483 30.242 48.9999C30.091 48.6514 30.0131 48.2756 30.0131 47.8958C30.0131 47.516 30.091 47.1403 30.242 46.7918C30.393 46.4433 30.6139 46.1295 30.891 45.8698C31.1682 45.6101 31.4956 45.41 31.8531 45.2819C32.2107 45.1538 32.5907 45.1004 32.9697 45.125C33.3487 45.1004 33.7287 45.1538 34.0862 45.2819C34.4437 45.41 34.7712 45.6101 35.0483 45.8698C35.3254 46.1295 35.5463 46.4433 35.6973 46.7918C35.8483 47.1403 35.9262 47.516 35.9262 47.8958C35.9262 48.2756 35.8483 48.6514 35.6973 48.9999C35.5463 49.3483 35.3254 49.6621 35.0483 49.9218C34.7712 50.1815 34.4437 50.3816 34.0862 50.5098C33.7287 50.6379 33.3487 50.6913 32.9697 50.6667ZM50.668 50.6667C50.1251 50.6393 49.6023 50.4531 49.1642 50.1313C48.7261 49.8095 48.3921 49.3662 48.2036 48.8564C48.0152 48.3466 47.9804 47.7927 48.1038 47.2633C48.2272 46.7339 48.5032 46.2524 48.8977 45.8784C49.2922 45.5045 49.7877 45.2545 50.3229 45.1596C50.8581 45.0646 51.4094 45.1288 51.9085 45.3442C52.4075 45.5597 52.8324 45.9168 53.1303 46.3714C53.4283 46.826 53.5863 47.3581 53.5847 47.9017C53.5741 48.2755 53.49 48.6437 53.337 48.985C53.1841 49.3264 52.9654 49.6342 52.6935 49.891C52.4215 50.1478 52.1016 50.3485 51.7521 50.4815C51.4026 50.6146 51.0302 50.6775 50.6563 50.6667H50.668ZM58.333 37.8333H51.333V34.3333H55.9997C56.6185 34.3333 57.212 34.5792 57.6496 35.0168C58.0872 35.4543 58.333 36.0478 58.333 36.6667V37.8333Z" fill="black"/>
</svg>
